<?xml version="1.0" encoding="utf-8"?>
<!-- Generator: Adobe Illustrator 28.1.0, SVG Export Plug-In . SVG Version: 6.00 Build 0)  -->
<svg version="1.1" id="Layer_1" xmlns="http://www.w3.org/2000/svg" xmlns:xlink="http://www.w3.org/1999/xlink" x="0px" y="0px"
	 viewBox="0 0 949.6 193.2" style="enable-background:new 0 0 949.6 193.2;" xml:space="preserve">
<style type="text/css">
	.st0{fill:none;stroke:#F42424;stroke-width:2;stroke-miterlimit:10;}
	.st1{fill:#F42424;}
	.st2{fill:#FFFFFF;stroke:#F42424;stroke-width:2;stroke-miterlimit:10;}
	.st3{fill:#BDA587;}
	.st4{fill:#BDA587;stroke:#BDA587;stroke-width:2;stroke-miterlimit:10;}
	.st5{fill:#FFFFFF;}
	.st6{font-family:'PTSans-Regular';}
	.st7{font-size:159px;}
	.st8{letter-spacing:-17;}
	.st9{fill:none;stroke:#FFFFFF;stroke-miterlimit:10;}
	.st10{letter-spacing:-4;}
	.st11{letter-spacing:-6;}
	.st12{letter-spacing:-11;}
</style>
<path class="st0" d="M80.1,80.1c-0.3,23.4-1,52.3-1.3,75.7l15.5,1.9l-93.8,0.4l19.6-2c-0.1-23.3,0-57.8-0.1-81
	c-6.2,0-7.4-4.9-12.9-2.6c9.6-7.3,11.7-6.2,17.2-10.2c3-2.2,5.9-4.3,6.9-5c6.4-4.7,11.7-8.5,16.6-11.9c15-10.7,22.5-16.1,27.3-19.3
	c3.7-2.5,7.2-4.8,12.3-8.5c4.9-3.6,6-4.6,10.8-8c1.2-0.9,4-2.8,8-5.7c1.1-0.8,2-1.4,2.6-1.9l6.4,4.2l23.9,18.5l6.9,0.3v-3.5l35-0.4
	l1.3-0.1l-0.9,31.8l28.9,17c-5.4-1.9,2.1,2.6-8.2,4.6c0.8,19.9,0.2,43.3,0.2,62.5l-0.2,18.7l6.8,0.9l5.9,0.5l-80.3,0.3l11.2-2.2
	l-0.1-4.2c-0.4-24.2-0.1-48.5-0.5-72.7"/>
<path class="st1" d="M76.1,76.2l-56.9,1.1l6.6-0.1l60.6-0.9l73.3-1.1l4.5-0.1l59.1-1.1c0,0-24.7-1.1-24.6-1.1l17.3,1.5l4.9-0.5
	l-40.3-23.2l0.9-31.8l-36.3,0.6V23l-6.9-0.3L108,0L0.5,77.3h6.1"/>
<polyline class="st0" points="202.5,78.1 145.1,78.1 138.2,74.4 "/>
<polyline class="st2" points="77.7,80.1 79.2,80.1 21.1,80.1 "/>
<line class="st0" x1="86.4" y1="76.3" x2="79.2" y2="80.1"/>
<polyline class="st3" points="21.1,81.4 79.2,81.4 77.8,155.7 21.1,155.7 "/>
<polyline class="st4" points="146.9,80.1 200.6,80.1 199.4,154.9 146.9,154.9 "/>
<text transform="matrix(1 0 0 1 223.34 153.79)" class="st5 st6 st7 st8">C</text>
<text transform="matrix(1 0 0 1 223.34 153.79)" class="st9 st6 st7 st8">C</text>
<text transform="matrix(1 0 0 1 223.34 153.79)" class="st5 st6 st7 st8">C</text>
<text transform="matrix(1 0 0 1 223.34 153.79)" class="st9 st6 st7 st8">C</text>
<text transform="matrix(1 0 0 1 303.48 153.79)" class="st5 st6 st7 st10">o</text>
<text transform="matrix(1 0 0 1 303.48 153.79)" class="st9 st6 st7 st10">o</text>
<text transform="matrix(1 0 0 1 303.48 153.79)" class="st5 st6 st7 st10">o</text>
<text transform="matrix(1 0 0 1 303.48 153.79)" class="st9 st6 st7 st10">o</text>
<text transform="matrix(1 0 0 1 383.61 153.79)" class="st5 st6 st7">r</text>
<text transform="matrix(1 0 0 1 383.61 153.79)" class="st9 st6 st7">r</text>
<text transform="matrix(1 0 0 1 383.61 153.79)" class="st5 st6 st7">r</text>
<text transform="matrix(1 0 0 1 383.61 153.79)" class="st9 st6 st7">r</text>
<text transform="matrix(1 0 0 1 437.35 153.79)" class="st5 st6 st7 st11">t</text>
<text transform="matrix(1 0 0 1 437.35 153.79)" class="st9 st6 st7 st11">t</text>
<text transform="matrix(1 0 0 1 437.35 153.79)" class="st5 st6 st7 st11">t</text>
<text transform="matrix(1 0 0 1 437.35 153.79)" class="st9 st6 st7 st11">t</text>
<text transform="matrix(1 0 0 1 484.42 153.79)" class="st5 st6 st7 st10">es</text>
<text transform="matrix(1 0 0 1 484.42 153.79)" class="st9 st6 st7 st10">es</text>
<text transform="matrix(1 0 0 1 484.42 153.79)" class="st5 st6 st7 st10">es</text>
<text transform="matrix(1 0 0 1 484.42 153.79)" class="st9 st6 st7 st10">es</text>
<text transform="matrix(1 0 0 1 659.32 153.79)" class="st5 st6 st7 st12">c</text>
<text transform="matrix(1 0 0 1 659.32 153.79)" class="st9 st6 st7 st12">c</text>
<text transform="matrix(1 0 0 1 659.32 153.79)" class="st5 st6 st7 st12">c</text>
<text transform="matrix(1 0 0 1 659.32 153.79)" class="st9 st6 st7 st12">c</text>
<text transform="matrix(1 0 0 1 722.28 153.79)" class="st5 st6 st7 st10">orp</text>
<text transform="matrix(1 0 0 1 722.28 153.79)" class="st9 st6 st7 st10">orp</text>
<text transform="matrix(1 0 0 1 722.28 153.79)" class="st5 st6 st7 st10">orp</text>
<text transform="matrix(1 0 0 1 722.28 153.79)" class="st9 st6 st7 st10">orp</text>
</svg>
